# Task 14C-1A2a canonical intersection provenance
# finalTriangles=80/2743
# rawTriangles=80/2743
# leftCube=49,16,2 leftTetra=4
# rightCube=49,16,3 rightTetra=0
o final_left_triangle
v -0.06339255720376968 0.814189076423645 -0.12720194458961487
v -0.06935295462608337 0.8139617443084717 -0.12591898441314697
v -0.06603145599365234 0.8602845668792725 -0.13540984690189362
f 1 2 3
o final_right_triangle
v -0.06454353779554367 0.8175843954086304 -0.12777359783649445
v -0.05577254295349121 0.8717687129974365 -0.07972190529108047
v -0.07738544791936874 0.8244469165802002 -0.12604841589927673
f 4 5 6
v -0.06892233605351218 0.8199673068392341 -0.12714943551659427
v -0.0645193327728928 0.8177339260671448 -0.12764099117927719
l 7 8
