# Task 14C-1A2a canonical intersection provenance
# finalTriangles=82/2758
# rawTriangles=82/2758
# leftCube=49,16,2 leftTetra=5
# rightCube=50,16,3 rightTetra=3
o final_left_triangle
v -0.06339255720376968 0.814189076423645 -0.12720194458961487
v -0.06603145599365234 0.8602845668792725 -0.13540984690189362
v -0.06274480372667313 0.8144193291664124 -0.12737999856472015
f 1 2 3
o final_right_triangle
v -0.06454353779554367 0.8175843954086304 -0.12777359783649445
v -0.06456564366817474 0.8461684584617615 -0.0673605427145958
v -0.062820665538311 0.8157798647880554 -0.12769563496112823
f 4 5 6
v -0.0635288473003607 0.8165697508438592 -0.12762585467030418
v -0.06284655218981262 0.815839229134443 -0.12762858729914736
l 7 8
