# Task 14C-1A2a canonical intersection provenance
# finalTriangles=83/2760
# rawTriangles=83/2760
# leftCube=49,16,2 leftTetra=5
# rightCube=50,16,3 rightTetra=4
o final_left_triangle
v -0.06274480372667313 0.8144193291664124 -0.12737999856472015
v -0.06603145599365234 0.8602845668792725 -0.13540984690189362
v -0.06291709095239639 0.8600466847419739 -0.13630378246307373
f 1 2 3
o final_right_triangle
v -0.062820665538311 0.8157798647880554 -0.12769563496112823
v -0.05600324645638466 0.83786940574646 -0.06790120899677277
v -0.04515539109706879 0.8334618806838989 -0.06772670149803162
f 4 5 6
v -0.06281336334690898 0.8158035250697724 -0.1276315886794022
v -0.06280245499926188 0.8157980925853087 -0.12763381499856852
l 7 8
