# Task 14C-1A2a canonical intersection provenance
# finalTriangles=83/2759
# rawTriangles=83/2759
# leftCube=49,16,2 leftTetra=5
# rightCube=50,16,3 rightTetra=3
o final_left_triangle
v -0.06274480372667313 0.8144193291664124 -0.12737999856472015
v -0.06603145599365234 0.8602845668792725 -0.13540984690189362
v -0.06291709095239639 0.8600466847419739 -0.13630378246307373
f 1 2 3
o final_right_triangle
v -0.062820665538311 0.8157798647880554 -0.12769563496112823
v -0.06456564366817474 0.8461684584617615 -0.0673605427145958
v -0.05600324645638466 0.83786940574646 -0.06790120899677277
f 4 5 6
v -0.06282254633533517 0.815812618652171 -0.12763060373809557
v -0.06281336334690898 0.8158035250697724 -0.1276315886794022
l 7 8
