# Task 14C-1A2a canonical intersection provenance
# finalTriangles=82/2757
# rawTriangles=82/2757
# leftCube=49,16,2 leftTetra=5
# rightCube=50,16,3 rightTetra=2
o final_left_triangle
v -0.06339255720376968 0.814189076423645 -0.12720194458961487
v -0.06603145599365234 0.8602845668792725 -0.13540984690189362
v -0.06274480372667313 0.8144193291664124 -0.12737999856472015
f 1 2 3
o final_right_triangle
v -0.062820665538311 0.8157798647880554 -0.12769563496112823
v -0.07353273779153824 0.8490810990333557 -0.12807725369930267
v -0.05577254295349121 0.8717687129974365 -0.07972190529108047
f 4 5 6
v -0.06285548962425136 0.8159639510465216 -0.12765042296572746
v -0.06303062606054599 0.8164325811222929 -0.12770311482755067
l 7 8
