<?xml version="1.0" encoding="UTF-8"?>
<svg xmlns="http://www.w3.org/2000/svg" width="900" height="1100" viewBox="0 0 900 1100" role="img" aria-labelledby="title desc">
<title id="title">Hybrid Production Rig — back</title>
<desc id="desc">Static orthographic visual-direction prototype. Candidate HYBRID_PRODUCTION, back view. Same frozen Reference T input as all candidates.</desc>
<metadata>{&quot;candidateId&quot;:&quot;HYBRID_PRODUCTION&quot;,&quot;view&quot;:&quot;back&quot;,&quot;detailName&quot;:&quot;full&quot;,&quot;sourceCommit&quot;:&quot;e342f0a3eed8d0c185c46814e663c497b0b8d47a&quot;,&quot;coreRigFingerprint&quot;:&quot;fnv1a-8f257f74&quot;,&quot;jointCount&quot;:20,&quot;segmentCount&quot;:19,&quot;staticPrototype&quot;:true}</metadata>
<rect width="100%" height="100%" fill="#071018"/>
<polyline points="1241.21,1004.95 -341.21,1004.95" fill="none" stroke="#29404c" stroke-width="0.7" opacity="0.38"/><polyline points="1241.21,1004.95 -341.21,1004.95" fill="none" stroke="#29404c" stroke-width="0.7" opacity="0.38"/><polyline points="1241.21,1004.95 -341.21,1004.95" fill="none" stroke="#29404c" stroke-width="0.7" opacity="0.38"/><polyline points="1241.21,1004.95 -341.21,1004.95" fill="none" stroke="#29404c" stroke-width="0.7" opacity="0.38"/><polyline points="1241.21,1004.95 -341.21,1004.95" fill="none" stroke="#29404c" stroke-width="0.7" opacity="0.38"/><polyline points="1241.21,1004.95 -341.21,1004.95" fill="none" stroke="#29404c" stroke-width="0.7" opacity="0.38"/><polyline points="1241.21,1004.95 -341.21,1004.95" fill="none" stroke="#29404c" stroke-width="0.7" opacity="0.38"/><polyline points="1241.21,1004.95 -341.21,1004.95" fill="none" stroke="#29404c" stroke-width="0.7" opacity="0.38"/><polyline points="1241.21,1004.95 1241.21,1004.95" fill="none" stroke="#29404c" stroke-width="0.7" opacity="0.38"/><polyline points="1142.31,1004.95 1142.31,1004.95" fill="none" stroke="#29404c" stroke-width="0.7" opacity="0.38"/><polyline points="1043.41,1004.95 1043.41,1004.95" fill="none" stroke="#29404c" stroke-width="0.7" opacity="0.38"/><polyline points="944.51,1004.95 944.51,1004.95" fill="none" stroke="#29404c" stroke-width="0.7" opacity="0.38"/><polyline points="845.6,1004.95 845.6,1004.95" fill="none" stroke="#29404c" stroke-width="0.7" opacity="0.38"/><polyline points="746.7,1004.95 746.7,1004.95" fill="none" stroke="#29404c" stroke-width="0.7" opacity="0.38"/><polyline points="647.8,1004.95 647.8,1004.95" fill="none" stroke="#29404c" stroke-width="0.7" opacity="0.38"/><polyline points="548.9,1004.95 548.9,1004.95" fill="none" stroke="#29404c" stroke-width="0.7" opacity="0.38"/><polyline points="450,1004.95 450,1004.95" fill="none" stroke="#29404c" stroke-width="1.5" opacity="0.65"/><polyline points="1241.21,1004.95 -341.21,1004.95" fill="none" stroke="#29404c" stroke-width="1.5" opacity="0.65"/><polyline points="351.1,1004.95 351.1,1004.95" fill="none" stroke="#29404c" stroke-width="0.7" opacity="0.38"/><polyline points="252.2,1004.95 252.2,1004.95" fill="none" stroke="#29404c" stroke-width="0.7" opacity="0.38"/><polyline points="153.3,1004.95 153.3,1004.95" fill="none" stroke="#29404c" stroke-width="0.7" opacity="0.38"/><polyline points="54.4,1004.95 54.4,1004.95" fill="none" stroke="#29404c" stroke-width="0.7" opacity="0.38"/><polyline points="-44.51,1004.95 -44.51,1004.95" fill="none" stroke="#29404c" stroke-width="0.7" opacity="0.38"/><polyline points="-143.41,1004.95 -143.41,1004.95" fill="none" stroke="#29404c" stroke-width="0.7" opacity="0.38"/><polyline points="-242.31,1004.95 -242.31,1004.95" fill="none" stroke="#29404c" stroke-width="0.7" opacity="0.38"/><polyline points="-341.21,1004.95 -341.21,1004.95" fill="none" stroke="#29404c" stroke-width="0.7" opacity="0.38"/><polyline points="1241.21,1004.95 -341.21,1004.95" fill="none" stroke="#29404c" stroke-width="0.7" opacity="0.38"/><polyline points="1241.21,1004.95 -341.21,1004.95" fill="none" stroke="#29404c" stroke-width="0.7" opacity="0.38"/><polyline points="1241.21,1004.95 -341.21,1004.95" fill="none" stroke="#29404c" stroke-width="0.7" opacity="0.38"/><polyline points="1241.21,1004.95 -341.21,1004.95" fill="none" stroke="#29404c" stroke-width="0.7" opacity="0.38"/><polyline points="1241.21,1004.95 -341.21,1004.95" fill="none" stroke="#29404c" stroke-width="0.7" opacity="0.38"/><polyline points="1241.21,1004.95 -341.21,1004.95" fill="none" stroke="#29404c" stroke-width="0.7" opacity="0.38"/><polyline points="1241.21,1004.95 -341.21,1004.95" fill="none" stroke="#29404c" stroke-width="0.7" opacity="0.38"/><polyline points="1241.21,1004.95 -341.21,1004.95" fill="none" stroke="#29404c" stroke-width="0.7" opacity="0.38"/>
<g stroke-linecap="round" stroke-linejoin="round"><polyline points="529.12,962.91 533.08,962.91" fill="none" stroke="#69d3ae" stroke-width="2" opacity="0.74"/><polyline points="370.88,962.91 366.92,962.91" fill="none" stroke="#69d3ae" stroke-width="2" opacity="0.74"/><polyline points="556.32,970.33 501.92,970.33 498.46,975.27 559.78,975.27 556.32,970.33" fill="none" stroke="#93d8ef" stroke-width="2.2" opacity="0.85"/><polyline points="398.08,970.33 343.68,970.33 340.22,975.27 401.54,975.27 398.08,970.33" fill="none" stroke="#93d8ef" stroke-width="2.2" opacity="0.85"/><polyline points="556.32,970.33 529.12,955.99 498.46,975.27" fill="none" stroke="#f0bb52" stroke-width="1.6" opacity="0.78"/><polyline points="398.08,970.33 370.88,955.99 340.22,975.27" fill="none" stroke="#f0bb52" stroke-width="1.6" opacity="0.78"/><polygon points="496.98,243.41 403.02,243.41 403.02,134.62 496.98,134.62" fill="#1c3a49" stroke="#f0bb52" stroke-width="1.15" opacity="0.72"/><polyline points="504.4,755.22 529.12,953.02" fill="none" stroke="#69d3ae" stroke-width="3.2" opacity="0.8"/><polyline points="395.6,755.22 370.88,953.02" fill="none" stroke="#69d3ae" stroke-width="3.2" opacity="0.8"/><polyline points="690.93,347.91 810.31,347.91" fill="none" stroke="#69d3ae" stroke-width="3.2" opacity="0.8"/><polyline points="209.07,347.91 89.69,347.91" fill="none" stroke="#69d3ae" stroke-width="3.2" opacity="0.8"/><polygon points="428.91,274.86 450,276.03 450,265.97 444.34,265.66" fill="#103442" stroke="#93d8ef" stroke-width="1.05" opacity="0.9"/><polygon points="450,276.03 471.09,274.86 455.66,265.66 450,265.97" fill="#315563" stroke="#93d8ef" stroke-width="1.05" opacity="0.9"/><polygon points="450,304.67 462.34,303.98 471.09,274.86 450,276.03" fill="#315563" stroke="#93d8ef" stroke-width="1.05" opacity="0.9"/><polygon points="437.66,303.98 450,304.67 450,276.03 428.91,274.86" fill="#103442" stroke="#93d8ef" stroke-width="1.05" opacity="0.9"/><polygon points="570.3,319.72 570.3,347.91 622.39,347.91 622.39,334.38" fill="#103442" stroke="#93d8ef" stroke-width="1.05" opacity="0.9"/><polygon points="570.3,347.91 570.3,376.09 622.39,361.43 622.39,347.91" fill="#315563" stroke="#93d8ef" stroke-width="1.05" opacity="0.9"/><polygon points="329.7,376.09 329.7,347.91 277.61,347.91 277.61,361.43" fill="#103442" stroke="#93d8ef" stroke-width="1.05" opacity="0.9"/><polygon points="329.7,347.91 329.7,319.72 277.61,334.38 277.61,347.91" fill="#315563" stroke="#93d8ef" stroke-width="1.05" opacity="0.9"/><polygon points="443.32,265.66 450,263.64 450,250.6 427.75,257.35" fill="#103442" stroke="#93d8ef" stroke-width="1.05" opacity="0.9"/><polygon points="450,263.64 456.68,265.66 472.25,257.35 450,250.6" fill="#315563" stroke="#93d8ef" stroke-width="1.05" opacity="0.9"/><polygon points="424.29,333.11 450,334.54 450,304.67 437.66,303.98" fill="#103442" stroke="#93d8ef" stroke-width="1.05" opacity="0.9"/><polygon points="450,334.54 475.71,333.11 462.34,303.98 450,304.67" fill="#315563" stroke="#93d8ef" stroke-width="1.05" opacity="0.9"/><polygon points="553.85,339.45 553.85,347.91 570.3,347.91 570.3,319.72" fill="#103442" stroke="#93d8ef" stroke-width="1.05" opacity="0.9"/><polygon points="553.85,347.91 553.85,356.36 570.3,376.09 570.3,347.91" fill="#315563" stroke="#93d8ef" stroke-width="1.05" opacity="0.9"/><polygon points="622.39,334.38 622.39,347.91 674.48,347.91 674.48,324.79" fill="#103442" stroke="#93d8ef" stroke-width="1.05" opacity="0.9"/><polygon points="622.39,347.91 622.39,361.43 674.48,371.02 674.48,347.91" fill="#315563" stroke="#93d8ef" stroke-width="1.05" opacity="0.9"/><polygon points="346.15,356.36 346.15,347.91 329.7,347.91 329.7,376.09" fill="#103442" stroke="#93d8ef" stroke-width="1.05" opacity="0.9"/><polygon points="346.15,347.91 346.15,339.45 329.7,319.72 329.7,347.91" fill="#315563" stroke="#93d8ef" stroke-width="1.05" opacity="0.9"/><polygon points="277.61,361.43 277.61,347.91 225.52,347.91 225.52,371.02" fill="#103442" stroke="#93d8ef" stroke-width="1.05" opacity="0.9"/><polygon points="277.61,347.91 277.61,334.38 225.52,324.79 225.52,347.91" fill="#315563" stroke="#93d8ef" stroke-width="1.05" opacity="0.9"/><polygon points="862.23,368.18 802.89,368.18 802.89,327.63 862.23,327.63" fill="#17414a" stroke="#69d3ae" stroke-width="1.15" opacity="0.86"/><polygon points="97.11,368.18 37.77,368.18 37.77,327.63 97.11,327.63" fill="#17414a" stroke="#69d3ae" stroke-width="1.15" opacity="0.86"/><polygon points="674.48,324.79 674.48,347.91 690.93,347.91 690.93,341.7" fill="#103442" stroke="#93d8ef" stroke-width="1.05" opacity="0.9"/><polygon points="674.48,347.91 674.48,371.02 690.93,354.11 690.93,347.91" fill="#315563" stroke="#93d8ef" stroke-width="1.05" opacity="0.9"/><polygon points="225.52,371.02 225.52,347.91 209.07,347.91 209.07,354.11" fill="#103442" stroke="#93d8ef" stroke-width="1.05" opacity="0.9"/><polygon points="225.52,347.91 225.52,324.79 209.07,341.7 209.07,347.91" fill="#315563" stroke="#93d8ef" stroke-width="1.05" opacity="0.9"/><polygon points="520.19,649.71 501.91,649.7 503.78,729.26 535.02,729.27" fill="#18424e" stroke="#93d8ef" stroke-width="1.05" opacity="0.9"/><polygon points="501.91,649.7 483.65,650.57 472.59,730.73 503.78,729.26" fill="#39636f" stroke="#93d8ef" stroke-width="1.05" opacity="0.9"/><polygon points="416.35,650.57 398.09,649.7 396.22,729.26 427.41,730.73" fill="#18424e" stroke="#93d8ef" stroke-width="1.05" opacity="0.9"/><polygon points="398.09,649.7 379.81,649.71 364.98,729.27 396.22,729.26" fill="#39636f" stroke="#93d8ef" stroke-width="1.05" opacity="0.9"/><polygon points="535.02,729.27 503.78,729.26 504.39,755.02 512.77,755.02" fill="#18424e" stroke="#93d8ef" stroke-width="1.05" opacity="0.9"/><polygon points="503.78,729.26 472.59,730.73 496.02,755.42 504.39,755.02" fill="#39636f" stroke="#93d8ef" stroke-width="1.05" opacity="0.9"/><polygon points="427.41,730.73 396.22,729.26 395.61,755.02 403.98,755.42" fill="#18424e" stroke="#93d8ef" stroke-width="1.05" opacity="0.9"/><polygon points="396.22,729.26 364.98,729.27 387.23,755.02 395.61,755.02" fill="#39636f" stroke="#93d8ef" stroke-width="1.05" opacity="0.9"/><polygon points="442.29,342.31 450,342.74 450,334.54 424.29,333.11" fill="#103442" stroke="#93d8ef" stroke-width="1.05" opacity="0.9"/><polygon points="450,342.74 457.71,342.31 475.71,333.11 450,334.54" fill="#315563" stroke="#93d8ef" stroke-width="1.05" opacity="0.9"/><circle cx="450" cy="265.66" r="5.19" fill="#eef8f5" stroke="#21414d" stroke-width="1.1" opacity="1"/><polygon points="538.11,569.38 500.02,569.37 501.91,649.7 520.19,649.71" fill="#18424e" stroke="#93d8ef" stroke-width="1.05" opacity="0.9"/><polygon points="500.02,569.37 461.98,571.17 483.65,650.57 501.91,649.7" fill="#39636f" stroke="#93d8ef" stroke-width="1.05" opacity="0.9"/><polygon points="438.02,571.17 399.98,569.37 398.09,649.7 416.35,650.57" fill="#18424e" stroke="#93d8ef" stroke-width="1.05" opacity="0.9"/><polygon points="399.98,569.37 361.89,569.38 379.81,649.71 398.09,649.7" fill="#39636f" stroke="#93d8ef" stroke-width="1.05" opacity="0.9"/><polygon points="557.55,329.26 546.41,342.75 553.52,347.68 556.51,344.06" fill="#103442" stroke="#93d8ef" stroke-width="1.05" opacity="0.9"/><polygon points="546.41,342.75 537.68,357.91 551.18,351.75 553.52,347.68" fill="#315563" stroke="#93d8ef" stroke-width="1.05" opacity="0.9"/><polygon points="362.32,357.91 353.59,342.75 346.48,347.68 348.82,351.75" fill="#103442" stroke="#93d8ef" stroke-width="1.05" opacity="0.9"/><polygon points="353.59,342.75 342.45,329.26 343.49,344.06 346.48,347.68" fill="#315563" stroke="#93d8ef" stroke-width="1.05" opacity="0.9"/><polygon points="428.91,350.91 450,352.88 450,342.84 444.34,342.31" fill="#103442" stroke="#93d8ef" stroke-width="1.05" opacity="0.9"/><polygon points="450,352.88 471.09,350.91 455.66,342.31 450,342.84" fill="#315563" stroke="#93d8ef" stroke-width="1.05" opacity="0.9"/><polygon points="527.18,329.42 522.07,338.29 537.68,357.91 546.41,342.75" fill="#315563" stroke="#93d8ef" stroke-width="1.05" opacity="0.9"/><polygon points="372.82,329.42 366.3,321.52 342.45,329.26 353.59,342.75" fill="#315563" stroke="#93d8ef" stroke-width="1.05" opacity="0.9"/><polygon points="533.7,321.52 527.18,329.42 546.41,342.75 557.55,329.26" fill="#103442" stroke="#93d8ef" stroke-width="1.05" opacity="0.9"/><polygon points="377.93,338.29 372.82,329.42 353.59,342.75 362.32,357.91" fill="#103442" stroke="#93d8ef" stroke-width="1.05" opacity="0.9"/><polygon points="437.66,378.16 450,379.31 450,352.88 428.91,350.91" fill="#103442" stroke="#93d8ef" stroke-width="1.05" opacity="0.9"/><polygon points="450,379.31 462.34,378.16 471.09,350.91 450,352.88" fill="#315563" stroke="#93d8ef" stroke-width="1.05" opacity="0.9"/><polygon points="510.87,544.79 499.44,544.78 500.02,569.37 538.11,569.38" fill="#18424e" stroke="#93d8ef" stroke-width="1.05" opacity="0.9"/><polygon points="499.44,544.78 488.03,545.32 461.98,571.17 500.02,569.37" fill="#39636f" stroke="#93d8ef" stroke-width="1.05" opacity="0.9"/><polygon points="411.97,545.32 400.56,544.78 399.98,569.37 438.02,571.17" fill="#18424e" stroke="#93d8ef" stroke-width="1.05" opacity="0.9"/><polygon points="400.56,544.78 389.13,544.79 361.89,569.38 399.98,569.37" fill="#39636f" stroke="#93d8ef" stroke-width="1.05" opacity="0.9"/><polygon points="520.27,298.75 506.69,315.21 527.18,329.42 533.7,321.52" fill="#103442" stroke="#93d8ef" stroke-width="1.05" opacity="0.9"/><polygon points="506.69,315.21 496.04,333.7 522.07,338.29 527.18,329.42" fill="#315563" stroke="#93d8ef" stroke-width="1.05" opacity="0.9"/><polygon points="403.96,333.7 393.31,315.21 372.82,329.42 377.93,338.29" fill="#103442" stroke="#93d8ef" stroke-width="1.05" opacity="0.9"/><polygon points="393.31,315.21 379.73,298.75 366.3,321.52 372.82,329.42" fill="#315563" stroke="#93d8ef" stroke-width="1.05" opacity="0.9"/><circle cx="529.12" cy="953.02" r="5.19" fill="#eef8f5" stroke="#21414d" stroke-width="1.1" opacity="1"/><circle cx="370.88" cy="953.02" r="5.19" fill="#eef8f5" stroke="#21414d" stroke-width="1.1" opacity="1"/><polygon points="862.23,368.18 862.23,368.18 802.89,368.18 802.89,368.18" fill="#517b84" stroke="#69d3ae" stroke-width="1.15" opacity="0.86"/><polygon points="802.89,368.18 802.89,368.18 802.89,327.63 802.89,327.63" fill="#2b555e" stroke="#69d3ae" stroke-width="1.15" opacity="0.86"/><polygon points="802.89,327.63 802.89,327.63 862.23,327.63 862.23,327.63" fill="#17414a" stroke="#69d3ae" stroke-width="1.15" opacity="0.86"/><polygon points="862.23,327.63 862.23,327.63 862.23,368.18 862.23,368.18" fill="#38626b" stroke="#69d3ae" stroke-width="1.15" opacity="0.86"/><polygon points="97.11,368.18 97.11,368.18 37.77,368.18 37.77,368.18" fill="#517b84" stroke="#69d3ae" stroke-width="1.15" opacity="0.86"/><polygon points="37.77,368.18 37.77,368.18 37.77,327.63 37.77,327.63" fill="#2b555e" stroke="#69d3ae" stroke-width="1.15" opacity="0.86"/><polygon points="37.77,327.63 37.77,327.63 97.11,327.63 97.11,327.63" fill="#17414a" stroke="#69d3ae" stroke-width="1.15" opacity="0.86"/><polygon points="97.11,327.63 97.11,327.63 97.11,368.18 97.11,368.18" fill="#38626b" stroke="#69d3ae" stroke-width="1.15" opacity="0.86"/><polyline points="815.25,360.76 862.23,362.69" fill="none" stroke="#93d8ef" stroke-width="1.1" opacity="0.72"/><polyline points="815.25,352.36 862.23,353.02" fill="none" stroke="#93d8ef" stroke-width="1.1" opacity="0.72"/><polyline points="815.25,343.45 862.23,342.79" fill="none" stroke="#93d8ef" stroke-width="1.1" opacity="0.72"/><polyline points="815.25,335.05 862.23,333.12" fill="none" stroke="#93d8ef" stroke-width="1.1" opacity="0.72"/><polyline points="84.75,360.76 37.77,362.69" fill="none" stroke="#93d8ef" stroke-width="1.1" opacity="0.72"/><polyline points="84.75,352.36 37.77,353.02" fill="none" stroke="#93d8ef" stroke-width="1.1" opacity="0.72"/><polyline points="84.75,343.45 37.77,342.79" fill="none" stroke="#93d8ef" stroke-width="1.1" opacity="0.72"/><polyline points="84.75,335.05 37.77,333.12" fill="none" stroke="#93d8ef" stroke-width="1.1" opacity="0.72"/><circle cx="553.85" cy="347.91" r="5.19" fill="#eef8f5" stroke="#21414d" stroke-width="1.1" opacity="1"/><circle cx="346.15" cy="347.91" r="5.19" fill="#eef8f5" stroke="#21414d" stroke-width="1.1" opacity="1"/><circle cx="690.93" cy="347.91" r="5.19" fill="#eef8f5" stroke="#21414d" stroke-width="1.1" opacity="1"/><circle cx="209.07" cy="347.91" r="5.19" fill="#eef8f5" stroke="#21414d" stroke-width="1.1" opacity="1"/><circle cx="810.31" cy="347.91" r="5.19" fill="#eef8f5" stroke="#21414d" stroke-width="1.1" opacity="1"/><circle cx="89.69" cy="347.91" r="5.19" fill="#eef8f5" stroke="#21414d" stroke-width="1.1" opacity="1"/><polygon points="427.75,257.35 450,250.6 450,227.81 439.32,231.04" fill="#103442" stroke="#93d8ef" stroke-width="1.05" opacity="0.9"/><polygon points="450,250.6 472.25,257.35 460.68,231.04 450,227.81" fill="#315563" stroke="#93d8ef" stroke-width="1.05" opacity="0.9"/><polygon points="471.09,274.86 450,273.69 450,265.34 455.66,265.66" fill="#4a6e7c" stroke="#93d8ef" stroke-width="1.05" opacity="0.9"/><polygon points="450,273.69 428.91,274.86 444.34,265.66 450,265.34" fill="#244856" stroke="#93d8ef" stroke-width="1.05" opacity="0.9"/><polygon points="424.29,405.41 450,407.81 450,379.31 437.66,378.16" fill="#103442" stroke="#93d8ef" stroke-width="1.05" opacity="0.9"/><polygon points="450,407.81 475.71,405.41 462.34,378.16 450,379.31" fill="#315563" stroke="#93d8ef" stroke-width="1.05" opacity="0.9"/><circle cx="450" cy="342.31" r="5.19" fill="#eef8f5" stroke="#21414d" stroke-width="1.1" opacity="1"/><circle cx="504.4" cy="755.22" r="5.19" fill="#eef8f5" stroke="#21414d" stroke-width="1.1" opacity="1"/><circle cx="395.6" cy="755.22" r="5.19" fill="#eef8f5" stroke="#21414d" stroke-width="1.1" opacity="1"/><polygon points="501.48,311.6 498.29,317.15 496.04,333.7 506.69,315.21" fill="#315563" stroke="#93d8ef" stroke-width="1.05" opacity="0.9"/><polygon points="398.52,311.6 394.44,306.66 379.73,298.75 393.31,315.21" fill="#315563" stroke="#93d8ef" stroke-width="1.05" opacity="0.9"/><polygon points="505.56,306.66 501.48,311.6 506.69,315.21 520.27,298.75" fill="#103442" stroke="#93d8ef" stroke-width="1.05" opacity="0.9"/><polygon points="401.71,317.15 398.52,311.6 393.31,315.21 403.96,333.7" fill="#103442" stroke="#93d8ef" stroke-width="1.05" opacity="0.9"/><polygon points="450,267.68 443.32,265.66 427.75,257.35 450,264.1" fill="#244856" stroke="#93d8ef" stroke-width="1.05" opacity="0.9"/><polygon points="456.68,265.66 450,267.68 450,264.1 472.25,257.35" fill="#4a6e7c" stroke="#93d8ef" stroke-width="1.05" opacity="0.9"/><polygon points="450,544.05 457.71,545.05 475.71,537.34 450,533.98" fill="#315563" stroke="#93d8ef" stroke-width="1.05" opacity="0.9"/><polygon points="442.29,545.05 450,544.05 450,533.98 424.29,537.34" fill="#103442" stroke="#93d8ef" stroke-width="1.05" opacity="0.9"/><polygon points="462.34,303.98 450,303.3 450,273.69 471.09,274.86" fill="#4a6e7c" stroke="#93d8ef" stroke-width="1.05" opacity="0.9"/><polygon points="450,303.3 437.66,303.98 428.91,274.86 450,273.69" fill="#244856" stroke="#93d8ef" stroke-width="1.05" opacity="0.9"/><polygon points="442.29,414.01 450,414.73 450,407.81 424.29,405.41" fill="#103442" stroke="#93d8ef" stroke-width="1.05" opacity="0.9"/><polygon points="450,414.73 457.71,414.01 475.71,405.41 450,407.81" fill="#315563" stroke="#93d8ef" stroke-width="1.05" opacity="0.9"/><polygon points="537.68,357.91 548.82,344.42 554.17,348.13 551.18,351.75" fill="#4a6e7c" stroke="#93d8ef" stroke-width="1.05" opacity="0.9"/><polygon points="548.82,344.42 557.55,329.26 556.51,344.06 554.17,348.13" fill="#244856" stroke="#93d8ef" stroke-width="1.05" opacity="0.9"/><polygon points="342.45,329.26 351.18,344.42 345.83,348.13 343.49,344.06" fill="#4a6e7c" stroke="#93d8ef" stroke-width="1.05" opacity="0.9"/><polygon points="351.18,344.42 362.32,357.91 348.82,351.75 345.83,348.13" fill="#244856" stroke="#93d8ef" stroke-width="1.05" opacity="0.9"/><polygon points="674.48,371.02 674.48,347.91 690.93,347.91 690.93,354.11" fill="#4a6e7c" stroke="#93d8ef" stroke-width="1.05" opacity="0.9"/><polygon points="674.48,347.91 674.48,324.79 690.93,341.7 690.93,347.91" fill="#244856" stroke="#93d8ef" stroke-width="1.05" opacity="0.9"/><polygon points="225.52,324.79 225.52,347.91 209.07,347.91 209.07,341.7" fill="#4a6e7c" stroke="#93d8ef" stroke-width="1.05" opacity="0.9"/><polygon points="225.52,347.91 225.52,371.02 209.07,354.11 209.07,347.91" fill="#244856" stroke="#93d8ef" stroke-width="1.05" opacity="0.9"/><polygon points="424.29,537.34 450,533.98 450,511.3 437.66,512.91" fill="#103442" stroke="#93d8ef" stroke-width="1.05" opacity="0.9"/><polygon points="450,533.98 475.71,537.34 462.34,512.91 450,511.3" fill="#315563" stroke="#93d8ef" stroke-width="1.05" opacity="0.9"/><polyline points="750.62,347.91 750.62,347.91" fill="none" stroke="#f0bb52" stroke-width="1.2" opacity="0.7"/><polyline points="149.38,347.91 149.38,347.91" fill="none" stroke="#f0bb52" stroke-width="1.2" opacity="0.7"/><polygon points="862.23,368.18 862.23,327.63 802.89,327.63 802.89,368.18" fill="#38626b" stroke="#69d3ae" stroke-width="1.15" opacity="0.86"/><polygon points="97.11,368.18 97.11,327.63 37.77,327.63 37.77,368.18" fill="#38626b" stroke="#69d3ae" stroke-width="1.15" opacity="0.86"/><polygon points="475.71,333.11 450,331.68 450,303.3 462.34,303.98" fill="#4a6e7c" stroke="#93d8ef" stroke-width="1.05" opacity="0.9"/><polygon points="450,331.68 424.29,333.11 437.66,303.98 450,303.3" fill="#244856" stroke="#93d8ef" stroke-width="1.05" opacity="0.9"/><polygon points="553.85,356.36 553.85,347.91 570.3,347.91 570.3,376.09" fill="#4a6e7c" stroke="#93d8ef" stroke-width="1.05" opacity="0.9"/><polygon points="553.85,347.91 553.85,339.45 570.3,319.72 570.3,347.91" fill="#244856" stroke="#93d8ef" stroke-width="1.05" opacity="0.9"/><polygon points="622.39,361.43 622.39,347.91 674.48,347.91 674.48,371.02" fill="#4a6e7c" stroke="#93d8ef" stroke-width="1.05" opacity="0.9"/><polygon points="622.39,347.91 622.39,334.38 674.48,324.79 674.48,347.91" fill="#244856" stroke="#93d8ef" stroke-width="1.05" opacity="0.9"/><polygon points="346.15,339.45 346.15,347.91 329.7,347.91 329.7,319.72" fill="#4a6e7c" stroke="#93d8ef" stroke-width="1.05" opacity="0.9"/><polygon points="346.15,347.91 346.15,356.36 329.7,376.09 329.7,347.91" fill="#244856" stroke="#93d8ef" stroke-width="1.05" opacity="0.9"/><polygon points="277.61,334.38 277.61,347.91 225.52,347.91 225.52,324.79" fill="#4a6e7c" stroke="#93d8ef" stroke-width="1.05" opacity="0.9"/><polygon points="277.61,347.91 277.61,361.43 225.52,371.02 225.52,347.91" fill="#244856" stroke="#93d8ef" stroke-width="1.05" opacity="0.9"/><polygon points="428.91,422.02 450,424.14 450,414.58 444.34,414.01" fill="#103442" stroke="#93d8ef" stroke-width="1.05" opacity="0.9"/><polygon points="450,424.14 471.09,422.02 455.66,414.01 450,414.58" fill="#315563" stroke="#93d8ef" stroke-width="1.05" opacity="0.9"/><polygon points="471.09,350.91 450,348.94 450,341.78 455.66,342.31" fill="#4a6e7c" stroke="#93d8ef" stroke-width="1.05" opacity="0.9"/><polygon points="450,348.94 428.91,350.91 444.34,342.31 450,341.78" fill="#244856" stroke="#93d8ef" stroke-width="1.05" opacity="0.9"/><polygon points="457.71,342.31 450,341.88 450,331.68 475.71,333.11" fill="#4a6e7c" stroke="#93d8ef" stroke-width="1.05" opacity="0.9"/><polygon points="450,341.88 442.29,342.31 424.29,333.11 450,331.68" fill="#244856" stroke="#93d8ef" stroke-width="1.05" opacity="0.9"/><polygon points="522.07,338.29 528.59,330.39 548.82,344.42 537.68,357.91" fill="#4a6e7c" stroke="#93d8ef" stroke-width="1.05" opacity="0.9"/><polygon points="528.59,330.39 533.7,321.52 557.55,329.26 548.82,344.42" fill="#244856" stroke="#93d8ef" stroke-width="1.05" opacity="0.9"/><polygon points="366.3,321.52 371.41,330.39 351.18,344.42 342.45,329.26" fill="#4a6e7c" stroke="#93d8ef" stroke-width="1.05" opacity="0.9"/><polygon points="371.41,330.39 377.93,338.29 362.32,357.91 351.18,344.42" fill="#244856" stroke="#93d8ef" stroke-width="1.05" opacity="0.9"/><polyline points="516.76,854.12 516.76,854.12" fill="none" stroke="#f0bb52" stroke-width="1.2" opacity="0.7"/><polyline points="383.24,854.12 383.24,854.12" fill="none" stroke="#f0bb52" stroke-width="1.2" opacity="0.7"/><polygon points="570.3,376.09 570.3,347.91 622.39,347.91 622.39,361.43" fill="#4a6e7c" stroke="#93d8ef" stroke-width="1.05" opacity="0.9"/><polygon points="570.3,347.91 570.3,319.72 622.39,334.38 622.39,347.91" fill="#244856" stroke="#93d8ef" stroke-width="1.05" opacity="0.9"/><polygon points="329.7,319.72 329.7,347.91 277.61,347.91 277.61,334.38" fill="#4a6e7c" stroke="#93d8ef" stroke-width="1.05" opacity="0.9"/><polygon points="329.7,347.91 329.7,376.09 277.61,361.43 277.61,347.91" fill="#244856" stroke="#93d8ef" stroke-width="1.05" opacity="0.9"/><circle cx="501.92" cy="311.9" r="5.19" fill="#eef8f5" stroke="#21414d" stroke-width="1.1" opacity="1"/><circle cx="398.08" cy="311.9" r="5.19" fill="#eef8f5" stroke="#21414d" stroke-width="1.1" opacity="1"/><polygon points="437.66,447.39 450,448.63 450,424.14 428.91,422.02" fill="#103442" stroke="#93d8ef" stroke-width="1.05" opacity="0.9"/><polygon points="450,448.63 462.34,447.39 471.09,422.02 450,424.14" fill="#315563" stroke="#93d8ef" stroke-width="1.05" opacity="0.9"/><polyline points="450,373.27 450,364.14 450,355.97 450,349.17 450,344.07 450,340.91 450,339.84 450,340.91 450,344.07 450,349.17 450,355.97 450,364.14 450,373.27" fill="none" stroke="#69d3ae" stroke-width="1.25" opacity="0.62"/><polyline points="450,402.32 450,394.7 450,387.9 450,382.23 450,377.98 450,375.34 450,374.45 450,375.34 450,377.98 450,382.23 450,387.9 450,394.7 450,402.32" fill="none" stroke="#69d3ae" stroke-width="1.25" opacity="0.62"/><polyline points="450,344.85 450,334.69 450,325.62 450,318.07 450,312.4 450,308.88 450,307.69 450,308.88 450,312.4 450,318.07 450,325.62 450,334.69 450,344.85" fill="none" stroke="#69d3ae" stroke-width="1.25" opacity="0.62"/><polyline points="450,319.49 450,310.86 450,303.15 450,296.73 450,291.91 450,288.92 450,287.91 450,288.92 450,291.91 450,296.73 450,303.15 450,310.86 450,319.49" fill="none" stroke="#69d3ae" stroke-width="1.25" opacity="0.62"/><polyline points="373.36,391.86 377.06,380.88 382.32,370.55 389.04,361.1 397.06,352.74 406.22,345.64 416.31,339.95 427.13,335.79 438.44,333.27 450,332.42 461.56,333.27 472.87,335.79 483.69,339.95 493.78,345.64 502.94,352.74 510.96,361.1 517.68,370.55 522.94,380.88 526.64,391.86" fill="none" stroke="#93d8ef" stroke-width="2.1" opacity="0.8"/><polyline points="359,360.97 363.39,347.93 369.63,335.67 377.61,324.45 387.13,314.52 398.01,306.08 410,299.33 422.84,294.39 436.27,291.39 450,290.38 463.73,291.39 477.16,294.39 490,299.33 501.99,306.08 512.87,314.52 522.39,324.45 530.37,335.67 536.61,347.93 541,360.97" fill="none" stroke="#93d8ef" stroke-width="2.1" opacity="0.8"/><polyline points="351.81,331.93 356.55,317.86 363.29,304.63 371.89,292.52 382.17,281.81 393.9,272.71 406.84,265.42 420.7,260.1 435.19,256.86 450,255.77 464.81,256.86 479.3,260.1 493.16,265.42 506.1,272.71 517.83,281.81 528.11,292.52 536.71,304.63 543.45,317.86 548.19,331.93" fill="none" stroke="#93d8ef" stroke-width="2.1" opacity="0.8"/><polyline points="359,306.58 363.39,293.54 369.63,281.27 377.61,270.06 387.13,260.12 398.01,251.69 410,244.93 422.84,240 436.27,237 450,235.99 463.73,237 477.16,240 490,244.93 501.99,251.69 512.87,260.12 522.39,270.06 530.37,281.27 536.61,293.54 541,306.58" fill="none" stroke="#93d8ef" stroke-width="2.1" opacity="0.8"/><polyline points="370.88,545.05 373.58,545.05 381.48,545.05 394.05,545.05 410.44,545.05 429.52,545.05 450,545.05 470.48,545.05 489.56,545.05 505.95,545.05 518.52,545.05 526.42,545.05 529.12,545.05 526.42,545.05 518.52,545.05 505.95,545.05 489.56,545.05 470.48,545.05 450,545.05 429.52,545.05 410.44,545.05 394.05,545.05 381.48,545.05 373.58,545.05 370.88,545.05" fill="none" stroke="#69d3ae" stroke-width="2.2" opacity="0.72"/><circle cx="450" cy="545.05" r="5.19" fill="#eef8f5" stroke="#21414d" stroke-width="1.1" opacity="1"/><circle cx="499.45" cy="545.05" r="5.19" fill="#eef8f5" stroke="#21414d" stroke-width="1.1" opacity="1"/><circle cx="400.55" cy="545.05" r="5.19" fill="#eef8f5" stroke="#21414d" stroke-width="1.1" opacity="1"/><polygon points="472.59,730.73 503.82,730.74 504.4,755.42 496.02,755.42" fill="#527c88" stroke="#93d8ef" stroke-width="1.05" opacity="0.9"/><polygon points="503.82,730.74 535.02,729.27 512.77,755.02 504.4,755.42" fill="#2c5662" stroke="#93d8ef" stroke-width="1.05" opacity="0.9"/><polygon points="364.98,729.27 396.18,730.74 395.6,755.42 387.23,755.02" fill="#527c88" stroke="#93d8ef" stroke-width="1.05" opacity="0.9"/><polygon points="396.18,730.74 427.41,730.73 403.98,755.42 395.6,755.42" fill="#2c5662" stroke="#93d8ef" stroke-width="1.05" opacity="0.9"/><polyline points="444.64,501.03 451.2,490.72 459.6,481.83 469.53,474.69 480.62,469.57 492.49,466.63 504.7,465.99 516.81,467.68 528.38,471.63 538.99,477.7 548.26,485.66 555.86,495.24 561.51,506.09 565,517.8 566.21,529.97 565.09,542.14 561.69,553.88" fill="none" stroke="#93d8ef" stroke-width="4" opacity="0.82"/><polyline points="338.31,553.88 334.91,542.14 333.79,529.97 335,517.8 338.49,506.09 344.14,495.24 351.74,485.66 361.01,477.7 371.62,471.63 383.19,467.68 395.3,465.99 407.51,466.63 419.38,469.57 430.47,474.69 440.4,481.83 448.8,490.72 455.36,501.03" fill="none" stroke="#93d8ef" stroke-width="4" opacity="0.82"/><polyline points="690.93,347.91 810.31,347.91" fill="none" stroke="#93d8ef" stroke-width="4.4" opacity="0.86"/><polyline points="209.07,347.91 89.69,347.91" fill="none" stroke="#93d8ef" stroke-width="4.4" opacity="0.86"/><polygon points="450,377 437.66,378.16 428.91,350.91 450,348.94" fill="#244856" stroke="#93d8ef" stroke-width="1.05" opacity="0.9"/><polygon points="462.34,378.16 450,377 450,348.94 471.09,350.91" fill="#4a6e7c" stroke="#93d8ef" stroke-width="1.05" opacity="0.9"/><polyline points="461.78,251.57 470.68,253.13 479.38,255.54 487.82,258.77 495.91,262.8 503.57,267.59 510.74,273.1 517.34,279.26 523.33,286.03 528.63,293.35 533.21,301.14 537.01,309.34 540.02,317.86 542.19,326.63 543.5,335.57 543.96,344.6 543.54,353.62" fill="none" stroke="#f0bb52" stroke-width="4.2" opacity="0.82"/><polyline points="356.78,356.56 356.08,347.36 356.28,338.14 357.38,328.99 359.37,319.99 362.24,311.22 365.95,302.78 370.47,294.75 375.76,287.19 381.76,280.19 388.42,273.82 395.67,268.12 403.45,263.17 411.67,259 420.27,255.65 429.14,253.17 438.22,251.57" fill="none" stroke="#f0bb52" stroke-width="4.2" opacity="0.82"/><polygon points="424.29,472.76 450,475.34 450,448.63 437.66,447.39" fill="#103442" stroke="#93d8ef" stroke-width="1.05" opacity="0.9"/><polygon points="450,475.34 475.71,472.76 462.34,447.39 450,448.63" fill="#315563" stroke="#93d8ef" stroke-width="1.05" opacity="0.9"/><polygon points="437.66,512.91 450,511.3 450,485.73 428.91,488.48" fill="#103442" stroke="#93d8ef" stroke-width="1.05" opacity="0.9"/><polygon points="450,511.3 462.34,512.91 471.09,488.48 450,485.73" fill="#315563" stroke="#93d8ef" stroke-width="1.05" opacity="0.9"/><polygon points="496.04,333.7 509.62,317.24 528.59,330.39 522.07,338.29" fill="#4a6e7c" stroke="#93d8ef" stroke-width="1.05" opacity="0.9"/><polygon points="509.62,317.24 520.27,298.75 533.7,321.52 528.59,330.39" fill="#244856" stroke="#93d8ef" stroke-width="1.05" opacity="0.9"/><polygon points="379.73,298.75 390.38,317.24 371.41,330.39 366.3,321.52" fill="#4a6e7c" stroke="#93d8ef" stroke-width="1.05" opacity="0.9"/><polygon points="390.38,317.24 403.96,333.7 377.93,338.29 371.41,330.39" fill="#244856" stroke="#93d8ef" stroke-width="1.05" opacity="0.9"/><polygon points="472.25,257.35 450,264.1 450,234.28 460.68,231.04" fill="#4a6e7c" stroke="#93d8ef" stroke-width="1.05" opacity="0.9"/><polygon points="450,264.1 427.75,257.35 439.32,231.04 450,234.28" fill="#244856" stroke="#93d8ef" stroke-width="1.05" opacity="0.9"/><circle cx="450" cy="414.01" r="5.19" fill="#eef8f5" stroke="#21414d" stroke-width="1.1" opacity="1"/><polygon points="498.29,317.15 502.36,312.21 509.62,317.24 496.04,333.7" fill="#4a6e7c" stroke="#93d8ef" stroke-width="1.05" opacity="0.9"/><polygon points="502.36,312.21 505.56,306.66 520.27,298.75 509.62,317.24" fill="#244856" stroke="#93d8ef" stroke-width="1.05" opacity="0.9"/><polygon points="394.44,306.66 397.64,312.21 390.38,317.24 379.73,298.75" fill="#4a6e7c" stroke="#93d8ef" stroke-width="1.05" opacity="0.9"/><polygon points="397.64,312.21 401.71,317.15 403.96,333.7 390.38,317.24" fill="#244856" stroke="#93d8ef" stroke-width="1.05" opacity="0.9"/><polyline points="504.4,755.22 529.12,953.02" fill="none" stroke="#93d8ef" stroke-width="4.4" opacity="0.86"/><polyline points="395.6,755.22 370.88,953.02" fill="none" stroke="#93d8ef" stroke-width="4.4" opacity="0.86"/><polygon points="501.93,650.57 520.19,649.71 535.02,729.27 503.82,730.74" fill="#2c5662" stroke="#93d8ef" stroke-width="1.05" opacity="0.9"/><polygon points="398.07,650.57 416.35,650.57 427.41,730.73 396.18,730.74" fill="#2c5662" stroke="#93d8ef" stroke-width="1.05" opacity="0.9"/><polygon points="483.65,650.57 501.93,650.57 503.82,730.74 472.59,730.73" fill="#527c88" stroke="#93d8ef" stroke-width="1.05" opacity="0.9"/><polygon points="379.81,649.71 398.07,650.57 396.18,730.74 364.98,729.27" fill="#527c88" stroke="#93d8ef" stroke-width="1.05" opacity="0.9"/><polygon points="450,227.81 460.68,231.04 468.25,204.74 450,199.2" fill="#315563" stroke="#93d8ef" stroke-width="1.05" opacity="0.9"/><polygon points="439.32,231.04 450,227.81 450,199.2 431.75,204.74" fill="#103442" stroke="#93d8ef" stroke-width="1.05" opacity="0.9"/><polygon points="442.29,480.77 450,481.54 450,475.34 424.29,472.76" fill="#103442" stroke="#93d8ef" stroke-width="1.05" opacity="0.9"/><polygon points="450,481.54 457.71,480.77 475.71,472.76 450,475.34" fill="#315563" stroke="#93d8ef" stroke-width="1.05" opacity="0.9"/><polygon points="475.71,405.41 450,403 450,377 462.34,378.16" fill="#4a6e7c" stroke="#93d8ef" stroke-width="1.05" opacity="0.9"/><polygon points="450,403 424.29,405.41 437.66,378.16 450,377" fill="#244856" stroke="#93d8ef" stroke-width="1.05" opacity="0.9"/><polygon points="450,485.73 471.09,488.48 455.66,480.77 450,480.03" fill="#315563" stroke="#93d8ef" stroke-width="1.05" opacity="0.9"/><polygon points="428.91,488.48 450,485.73 450,480.03 444.34,480.77" fill="#103442" stroke="#93d8ef" stroke-width="1.05" opacity="0.9"/><polygon points="457.71,545.05 450,546.06 450,540.7 475.71,537.34" fill="#4a6e7c" stroke="#93d8ef" stroke-width="1.05" opacity="0.9"/><polygon points="450,546.06 442.29,545.05 424.29,537.34 450,540.7" fill="#244856" stroke="#93d8ef" stroke-width="1.05" opacity="0.9"/><polygon points="541.48,364.56 492.03,364.56 492.03,305.22 541.48,305.22" fill="#294c52" stroke="#69d3ae" stroke-width="1" opacity="0.72"/><polygon points="407.97,364.56 358.52,364.56 358.52,305.22 407.97,305.22" fill="#294c52" stroke="#69d3ae" stroke-width="1" opacity="0.72"/><polygon points="471.09,422.02 450,419.91 450,413.44 455.66,414.01" fill="#4a6e7c" stroke="#93d8ef" stroke-width="1.05" opacity="0.9"/><polygon points="450,419.91 428.91,422.02 444.34,414.01 450,413.44" fill="#244856" stroke="#93d8ef" stroke-width="1.05" opacity="0.9"/><polygon points="450,413.29 442.29,414.01 424.29,405.41 450,403" fill="#244856" stroke="#93d8ef" stroke-width="1.05" opacity="0.9"/><polygon points="457.71,414.01 450,413.29 450,403 475.71,405.41" fill="#4a6e7c" stroke="#93d8ef" stroke-width="1.05" opacity="0.9"/><polygon points="461.98,571.17 500.07,571.18 501.93,650.57 483.65,650.57" fill="#527c88" stroke="#93d8ef" stroke-width="1.05" opacity="0.9"/><polygon points="500.07,571.18 538.11,569.38 520.19,649.71 501.93,650.57" fill="#2c5662" stroke="#93d8ef" stroke-width="1.05" opacity="0.9"/><polygon points="361.89,569.38 399.93,571.18 398.07,650.57 379.81,649.71" fill="#527c88" stroke="#93d8ef" stroke-width="1.05" opacity="0.9"/><polygon points="399.93,571.18 438.02,571.17 416.35,650.57 398.07,650.57" fill="#2c5662" stroke="#93d8ef" stroke-width="1.05" opacity="0.9"/><polygon points="488.03,545.32 499.46,545.33 500.07,571.18 461.98,571.17" fill="#527c88" stroke="#93d8ef" stroke-width="1.05" opacity="0.9"/><polygon points="499.46,545.33 510.87,544.79 538.11,569.38 500.07,571.18" fill="#2c5662" stroke="#93d8ef" stroke-width="1.05" opacity="0.9"/><polygon points="389.13,544.79 400.54,545.33 399.93,571.18 361.89,569.38" fill="#527c88" stroke="#93d8ef" stroke-width="1.05" opacity="0.9"/><polygon points="400.54,545.33 411.97,545.32 438.02,571.17 399.93,571.18" fill="#2c5662" stroke="#93d8ef" stroke-width="1.05" opacity="0.9"/><polygon points="475.71,537.34 450,540.7 450,514.53 462.34,512.91" fill="#4a6e7c" stroke="#93d8ef" stroke-width="1.05" opacity="0.9"/><polygon points="450,540.7 424.29,537.34 437.66,512.91 450,514.53" fill="#244856" stroke="#93d8ef" stroke-width="1.05" opacity="0.9"/><polygon points="462.34,447.39 450,446.15 450,419.91 471.09,422.02" fill="#4a6e7c" stroke="#93d8ef" stroke-width="1.05" opacity="0.9"/><polygon points="450,446.15 437.66,447.39 428.91,422.02 450,419.91" fill="#244856" stroke="#93d8ef" stroke-width="1.05" opacity="0.9"/><circle cx="450" cy="480.77" r="5.19" fill="#eef8f5" stroke="#21414d" stroke-width="1.1" opacity="1"/><polygon points="541.48,364.56 541.48,364.56 492.03,364.56 492.03,364.56" fill="#63868c" stroke="#69d3ae" stroke-width="1" opacity="0.72"/><polygon points="492.03,364.56 492.03,364.56 492.03,305.22 492.03,305.22" fill="#3d6066" stroke="#69d3ae" stroke-width="1" opacity="0.72"/><polygon points="492.03,305.22 492.03,305.22 541.48,305.22 541.48,305.22" fill="#294c52" stroke="#69d3ae" stroke-width="1" opacity="0.72"/><polygon points="541.48,305.22 541.48,305.22 541.48,364.56 541.48,364.56" fill="#4a6d73" stroke="#69d3ae" stroke-width="1" opacity="0.72"/><polygon points="407.97,364.56 407.97,364.56 358.52,364.56 358.52,364.56" fill="#63868c" stroke="#69d3ae" stroke-width="1" opacity="0.72"/><polygon points="358.52,364.56 358.52,364.56 358.52,305.22 358.52,305.22" fill="#3d6066" stroke="#69d3ae" stroke-width="1" opacity="0.72"/><polygon points="358.52,305.22 358.52,305.22 407.97,305.22 407.97,305.22" fill="#294c52" stroke="#69d3ae" stroke-width="1" opacity="0.72"/><polygon points="407.97,305.22 407.97,305.22 407.97,364.56 407.97,364.56" fill="#4a6d73" stroke="#69d3ae" stroke-width="1" opacity="0.72"/><polygon points="431.75,204.74 450,199.2 450,194.94 445.1,196.43" fill="#103442" stroke="#93d8ef" stroke-width="1.05" opacity="0.9"/><polygon points="450,199.2 468.25,204.74 454.9,196.43 450,194.94" fill="#315563" stroke="#93d8ef" stroke-width="1.05" opacity="0.9"/><polygon points="460.68,231.04 450,234.28 450,210.27 468.25,204.74" fill="#4a6e7c" stroke="#93d8ef" stroke-width="1.05" opacity="0.9"/><polygon points="450,234.28 439.32,231.04 431.75,204.74 450,210.27" fill="#244856" stroke="#93d8ef" stroke-width="1.05" opacity="0.9"/><polygon points="462.34,512.91 450,514.53 450,491.24 471.09,488.48" fill="#4a6e7c" stroke="#93d8ef" stroke-width="1.05" opacity="0.9"/><polygon points="450,514.53 437.66,512.91 428.91,488.48 450,491.24" fill="#244856" stroke="#93d8ef" stroke-width="1.05" opacity="0.9"/><polyline points="529.12,554.95 450,579.67 370.88,554.95" fill="none" stroke="#f0bb52" stroke-width="3" opacity="0.78"/><polygon points="450,470.18 424.29,472.76 437.66,447.39 450,446.15" fill="#244856" stroke="#93d8ef" stroke-width="1.05" opacity="0.9"/><polygon points="475.71,472.76 450,470.18 450,446.15 462.34,447.39" fill="#4a6e7c" stroke="#93d8ef" stroke-width="1.05" opacity="0.9"/><polygon points="450,491.24 428.91,488.48 444.34,480.77 450,481.51" fill="#244856" stroke="#93d8ef" stroke-width="1.05" opacity="0.9"/><polygon points="471.09,488.48 450,491.24 450,481.51 455.66,480.77" fill="#4a6e7c" stroke="#93d8ef" stroke-width="1.05" opacity="0.9"/><polygon points="457.71,480.77 450,480 450,470.18 475.71,472.76" fill="#4a6e7c" stroke="#93d8ef" stroke-width="1.05" opacity="0.9"/><polygon points="450,480 442.29,480.77 424.29,472.76 450,470.18" fill="#244856" stroke="#93d8ef" stroke-width="1.05" opacity="0.9"/><polygon points="541.48,364.56 541.48,305.22 492.03,305.22 492.03,364.56" fill="#4a6d73" stroke="#69d3ae" stroke-width="1" opacity="0.72"/><polygon points="407.97,364.56 407.97,305.22 358.52,305.22 358.52,364.56" fill="#4a6d73" stroke="#69d3ae" stroke-width="1" opacity="0.72"/><polygon points="496.98,243.41 496.98,243.41 403.02,243.41 403.02,243.41" fill="#567483" stroke="#f0bb52" stroke-width="1.15" opacity="0.72"/><polygon points="403.02,243.41 403.02,243.41 403.02,134.62 403.02,134.62" fill="#304e5d" stroke="#f0bb52" stroke-width="1.15" opacity="0.72"/><polygon points="403.02,134.62 403.02,134.62 496.98,134.62 496.98,134.62" fill="#1c3a49" stroke="#f0bb52" stroke-width="1.15" opacity="0.72"/><polygon points="496.98,134.62 496.98,134.62 496.98,243.41 496.98,243.41" fill="#3d5b6a" stroke="#f0bb52" stroke-width="1.15" opacity="0.72"/><polyline points="450,142.03 450,144.57 450,151.95 450,163.44 450,177.91 450,193.96 450,210 450,224.48 450,235.96 450,243.34 450,245.88 450,243.34 450,235.96 450,224.48 450,210 450,193.96 450,177.91 450,163.44 450,151.95 450,144.57 450,142.03" fill="none" stroke="#93d8ef" stroke-width="1.1" opacity="0.7"/><circle cx="450" cy="196.43" r="5.19" fill="#eef8f5" stroke="#21414d" stroke-width="1.1" opacity="1"/><polygon points="468.25,204.74 450,210.27 450,197.91 454.9,196.43" fill="#4a6e7c" stroke="#93d8ef" stroke-width="1.05" opacity="0.9"/><polygon points="450,210.27 431.75,204.74 445.1,196.43 450,197.91" fill="#244856" stroke="#93d8ef" stroke-width="1.05" opacity="0.9"/><polyline points="450,421.43 450,317.58" fill="none" stroke="#f0bb52" stroke-width="2" opacity="0.68"/><polygon points="496.98,243.41 496.98,134.62 403.02,134.62 403.02,243.41" fill="#3d5b6a" stroke="#f0bb52" stroke-width="1.15" opacity="0.72"/></g>
<path d="M24 24h44M24 24v44" fill="none" stroke="#58717b" stroke-width="1" opacity=".5"/>
</svg>
