<?xml version="1.0" encoding="UTF-8"?>
<svg xmlns="http://www.w3.org/2000/svg" width="900" height="1100" viewBox="0 0 900 1100" role="img" aria-labelledby="title desc">
<title id="title">Animation Control Studio Rig — back</title>
<desc id="desc">Static orthographic visual-direction prototype. Candidate CONTROL_STUDIO, back view. Same frozen Reference T input as all candidates.</desc>
<metadata>{&quot;candidateId&quot;:&quot;CONTROL_STUDIO&quot;,&quot;view&quot;:&quot;back&quot;,&quot;detailName&quot;:&quot;full&quot;,&quot;sourceCommit&quot;:&quot;e342f0a3eed8d0c185c46814e663c497b0b8d47a&quot;,&quot;coreRigFingerprint&quot;:&quot;fnv1a-8f257f74&quot;,&quot;jointCount&quot;:20,&quot;segmentCount&quot;:19,&quot;staticPrototype&quot;:true}</metadata>
<rect width="100%" height="100%" fill="#071018"/>
<polyline points="1241.21,1004.95 -341.21,1004.95" fill="none" stroke="#29404c" stroke-width="0.7" opacity="0.38"/><polyline points="1241.21,1004.95 -341.21,1004.95" fill="none" stroke="#29404c" stroke-width="0.7" opacity="0.38"/><polyline points="1241.21,1004.95 -341.21,1004.95" fill="none" stroke="#29404c" stroke-width="0.7" opacity="0.38"/><polyline points="1241.21,1004.95 -341.21,1004.95" fill="none" stroke="#29404c" stroke-width="0.7" opacity="0.38"/><polyline points="1241.21,1004.95 -341.21,1004.95" fill="none" stroke="#29404c" stroke-width="0.7" opacity="0.38"/><polyline points="1241.21,1004.95 -341.21,1004.95" fill="none" stroke="#29404c" stroke-width="0.7" opacity="0.38"/><polyline points="1241.21,1004.95 -341.21,1004.95" fill="none" stroke="#29404c" stroke-width="0.7" opacity="0.38"/><polyline points="1241.21,1004.95 -341.21,1004.95" fill="none" stroke="#29404c" stroke-width="0.7" opacity="0.38"/><polyline points="1241.21,1004.95 1241.21,1004.95" fill="none" stroke="#29404c" stroke-width="0.7" opacity="0.38"/><polyline points="1142.31,1004.95 1142.31,1004.95" fill="none" stroke="#29404c" stroke-width="0.7" opacity="0.38"/><polyline points="1043.41,1004.95 1043.41,1004.95" fill="none" stroke="#29404c" stroke-width="0.7" opacity="0.38"/><polyline points="944.51,1004.95 944.51,1004.95" fill="none" stroke="#29404c" stroke-width="0.7" opacity="0.38"/><polyline points="845.6,1004.95 845.6,1004.95" fill="none" stroke="#29404c" stroke-width="0.7" opacity="0.38"/><polyline points="746.7,1004.95 746.7,1004.95" fill="none" stroke="#29404c" stroke-width="0.7" opacity="0.38"/><polyline points="647.8,1004.95 647.8,1004.95" fill="none" stroke="#29404c" stroke-width="0.7" opacity="0.38"/><polyline points="548.9,1004.95 548.9,1004.95" fill="none" stroke="#29404c" stroke-width="0.7" opacity="0.38"/><polyline points="450,1004.95 450,1004.95" fill="none" stroke="#29404c" stroke-width="1.5" opacity="0.65"/><polyline points="1241.21,1004.95 -341.21,1004.95" fill="none" stroke="#29404c" stroke-width="1.5" opacity="0.65"/><polyline points="351.1,1004.95 351.1,1004.95" fill="none" stroke="#29404c" stroke-width="0.7" opacity="0.38"/><polyline points="252.2,1004.95 252.2,1004.95" fill="none" stroke="#29404c" stroke-width="0.7" opacity="0.38"/><polyline points="153.3,1004.95 153.3,1004.95" fill="none" stroke="#29404c" stroke-width="0.7" opacity="0.38"/><polyline points="54.4,1004.95 54.4,1004.95" fill="none" stroke="#29404c" stroke-width="0.7" opacity="0.38"/><polyline points="-44.51,1004.95 -44.51,1004.95" fill="none" stroke="#29404c" stroke-width="0.7" opacity="0.38"/><polyline points="-143.41,1004.95 -143.41,1004.95" fill="none" stroke="#29404c" stroke-width="0.7" opacity="0.38"/><polyline points="-242.31,1004.95 -242.31,1004.95" fill="none" stroke="#29404c" stroke-width="0.7" opacity="0.38"/><polyline points="-341.21,1004.95 -341.21,1004.95" fill="none" stroke="#29404c" stroke-width="0.7" opacity="0.38"/><polyline points="1241.21,1004.95 -341.21,1004.95" fill="none" stroke="#29404c" stroke-width="0.7" opacity="0.38"/><polyline points="1241.21,1004.95 -341.21,1004.95" fill="none" stroke="#29404c" stroke-width="0.7" opacity="0.38"/><polyline points="1241.21,1004.95 -341.21,1004.95" fill="none" stroke="#29404c" stroke-width="0.7" opacity="0.38"/><polyline points="1241.21,1004.95 -341.21,1004.95" fill="none" stroke="#29404c" stroke-width="0.7" opacity="0.38"/><polyline points="1241.21,1004.95 -341.21,1004.95" fill="none" stroke="#29404c" stroke-width="0.7" opacity="0.38"/><polyline points="1241.21,1004.95 -341.21,1004.95" fill="none" stroke="#29404c" stroke-width="0.7" opacity="0.38"/><polyline points="1241.21,1004.95 -341.21,1004.95" fill="none" stroke="#29404c" stroke-width="0.7" opacity="0.38"/><polyline points="1241.21,1004.95 -341.21,1004.95" fill="none" stroke="#29404c" stroke-width="0.7" opacity="0.38"/>
<g stroke-linecap="round" stroke-linejoin="round"><polyline points="412.91,184.07 414.18,174.47 417.88,165.52 423.77,157.84 431.46,151.95 440.4,148.24 450,146.98 459.6,148.24 468.54,151.95 476.23,157.84 482.12,165.52 485.82,174.47 487.09,184.07 485.82,193.66 482.12,202.61 476.23,210.29 468.54,216.19 459.6,219.89 450,221.15 440.4,219.89 431.46,216.19 423.77,210.29 417.88,202.61 414.18,193.66 412.91,184.07" fill="none" stroke="#f0bb52" stroke-width="2.6" opacity="0.92"/><polyline points="494.51,184.07 405.49,184.07" fill="none" stroke="#f0bb52" stroke-width="1.4" opacity="0.9"/><polyline points="450,228.57 450,139.56" fill="none" stroke="#f0bb52" stroke-width="1.4" opacity="0.9"/><polyline points="504.4,717.14 473.74,747.8 504.4,778.46 535.05,747.8 504.4,717.14" fill="none" stroke="#de78d6" stroke-width="2.5" opacity="0.92"/><polyline points="395.6,717.14 364.95,747.8 395.6,778.46 426.26,747.8 395.6,717.14" fill="none" stroke="#de78d6" stroke-width="2.5" opacity="0.92"/><polyline points="692.31,359.62 665.11,386.81 692.31,414.01 719.51,386.81 692.31,359.62" fill="none" stroke="#de78d6" stroke-width="2.5" opacity="0.92"/><polyline points="207.69,359.62 180.49,386.81 207.69,414.01 234.89,386.81 207.69,359.62" fill="none" stroke="#de78d6" stroke-width="2.5" opacity="0.92"/><polyline points="450,189.01 450,184.07" fill="none" stroke="#f0bb52" stroke-width="1.1" opacity="0.5" stroke-dasharray="5 5"/><polyline points="566.21,967.86 492.03,967.86 489.56,977.75 568.68,977.75 566.21,967.86" fill="none" stroke="#de78d6" stroke-width="2.8" opacity="0.92"/><polyline points="407.97,967.86 333.79,967.86 331.32,977.75 410.44,977.75 407.97,967.86" fill="none" stroke="#de78d6" stroke-width="2.8" opacity="0.92"/><polygon points="524.18,579.67 375.82,579.67 375.82,510.44 524.18,510.44" fill="#4c1746" stroke="#de78d6" stroke-width="1.7" opacity="0.25"/><polygon points="506.87,250.82 393.13,250.82 393.13,127.2 506.87,127.2" fill="#4c1746" stroke="#de78d6" stroke-width="1.7" opacity="0.25"/><polyline points="553.85,347.91 594.97,347.91 690.93,347.91" fill="none" stroke="#93d8ef" stroke-width="1.25" opacity="0.72"/><polyline points="346.15,347.91 305.03,347.91 209.07,347.91" fill="none" stroke="#93d8ef" stroke-width="1.25" opacity="0.72"/><polyline points="504.4,755.22 511.79,814.41 529.12,953.02" fill="none" stroke="#93d8ef" stroke-width="1.25" opacity="0.72"/><polyline points="395.6,755.22 388.21,814.41 370.88,953.02" fill="none" stroke="#93d8ef" stroke-width="1.25" opacity="0.72"/><circle cx="450" cy="265.66" r="3.96" fill="#eef8f5" stroke="#245d73" stroke-width="1.3" opacity="0.9"/><polyline points="690.93,347.91 726.74,347.91 810.31,347.91" fill="none" stroke="#93d8ef" stroke-width="1.25" opacity="0.72"/><polyline points="209.07,347.91 173.26,347.91 89.69,347.91" fill="none" stroke="#93d8ef" stroke-width="1.25" opacity="0.72"/><polyline points="450,342.31 450,319.93 450,265.66" fill="none" stroke="#93d8ef" stroke-width="1.25" opacity="0.72"/><polyline points="450,342.31 439.24,319.31 450,265.66" fill="none" stroke="#93d8ef" stroke-width="1.25" opacity="0.72"/><polyline points="450,342.31 460.76,319.31 450,265.66" fill="none" stroke="#93d8ef" stroke-width="1.25" opacity="0.72"/><circle cx="529.12" cy="953.02" r="3.96" fill="#eef8f5" stroke="#245d73" stroke-width="1.3" opacity="0.9"/><circle cx="370.88" cy="953.02" r="3.96" fill="#eef8f5" stroke="#245d73" stroke-width="1.3" opacity="0.9"/><polyline points="439.24,319.31 450,319.93 460.76,319.31 450,318.7 439.24,319.31" fill="none" stroke="#93d8ef" stroke-width="1.25" opacity="0.72"/><polyline points="594.97,328.71 594.97,347.91 594.97,367.1 594.97,347.91 594.97,328.71" fill="none" stroke="#93d8ef" stroke-width="1.25" opacity="0.72"/><polyline points="726.74,331.19 726.74,347.91 726.74,364.62 726.74,347.91 726.74,331.19" fill="none" stroke="#93d8ef" stroke-width="1.25" opacity="0.72"/><polyline points="305.03,367.1 305.03,347.91 305.03,328.71 305.03,347.91 305.03,367.1" fill="none" stroke="#93d8ef" stroke-width="1.25" opacity="0.72"/><polyline points="173.26,364.62 173.26,347.91 173.26,331.19 173.26,347.91 173.26,364.62" fill="none" stroke="#93d8ef" stroke-width="1.25" opacity="0.72"/><polyline points="553.85,347.91 594.97,328.71 690.93,347.91" fill="none" stroke="#93d8ef" stroke-width="1.25" opacity="0.72"/><polyline points="553.85,347.91 594.97,367.1 690.93,347.91" fill="none" stroke="#93d8ef" stroke-width="1.25" opacity="0.72"/><polyline points="690.93,347.91 726.74,331.19 810.31,347.91" fill="none" stroke="#93d8ef" stroke-width="1.25" opacity="0.72"/><polyline points="690.93,347.91 726.74,364.62 810.31,347.91" fill="none" stroke="#93d8ef" stroke-width="1.25" opacity="0.72"/><polyline points="346.15,347.91 305.03,367.1 209.07,347.91" fill="none" stroke="#93d8ef" stroke-width="1.25" opacity="0.72"/><polyline points="346.15,347.91 305.03,328.71 209.07,347.91" fill="none" stroke="#93d8ef" stroke-width="1.25" opacity="0.72"/><polyline points="209.07,347.91 173.26,364.62 89.69,347.91" fill="none" stroke="#93d8ef" stroke-width="1.25" opacity="0.72"/><polyline points="209.07,347.91 173.26,331.19 89.69,347.91" fill="none" stroke="#93d8ef" stroke-width="1.25" opacity="0.72"/><polyline points="865.38,377.42 806.04,377.42 806.04,318.08 865.38,318.08 865.38,377.42" fill="none" stroke="#de78d6" stroke-width="2.8" opacity="0.92"/><polyline points="93.96,377.42 34.62,377.42 34.62,318.08 93.96,318.08 93.96,377.42" fill="none" stroke="#de78d6" stroke-width="2.8" opacity="0.92"/><circle cx="553.85" cy="347.91" r="3.96" fill="#eef8f5" stroke="#245d73" stroke-width="1.3" opacity="0.9"/><circle cx="346.15" cy="347.91" r="3.96" fill="#eef8f5" stroke="#245d73" stroke-width="1.3" opacity="0.9"/><circle cx="690.93" cy="347.91" r="3.96" fill="#eef8f5" stroke="#245d73" stroke-width="1.3" opacity="0.9"/><circle cx="209.07" cy="347.91" r="3.96" fill="#eef8f5" stroke="#245d73" stroke-width="1.3" opacity="0.9"/><circle cx="810.31" cy="347.91" r="3.96" fill="#eef8f5" stroke="#245d73" stroke-width="1.3" opacity="0.9"/><circle cx="89.69" cy="347.91" r="3.96" fill="#eef8f5" stroke="#245d73" stroke-width="1.3" opacity="0.9"/><polyline points="499.45,545.05 500.92,607.6 504.4,755.22" fill="none" stroke="#93d8ef" stroke-width="1.25" opacity="0.72"/><polyline points="400.55,545.05 399.08,607.6 395.6,755.22" fill="none" stroke="#93d8ef" stroke-width="1.25" opacity="0.72"/><polyline points="306.59,997.53 309.35,997.53 317.51,997.53 330.76,997.53 348.6,997.53 370.33,997.53 395.12,997.53 422.02,997.53 450,997.53 477.98,997.53 504.88,997.53 529.67,997.53 551.4,997.53 569.24,997.53 582.49,997.53 590.65,997.53 593.41,997.53 590.65,997.53 582.49,997.53 569.24,997.53 551.4,997.53 529.67,997.53 504.88,997.53 477.98,997.53 450,997.53 422.02,997.53 395.12,997.53 370.33,997.53 348.6,997.53 330.76,997.53 317.51,997.53 309.35,997.53 306.59,997.53" fill="none" stroke="#de78d6" stroke-width="3.4" opacity="0.92"/><polyline points="504.4,755.22 532.42,811.98 529.12,953.02" fill="none" stroke="#93d8ef" stroke-width="1.25" opacity="0.72"/><polyline points="504.4,755.22 491.2,817.14 529.12,953.02" fill="none" stroke="#93d8ef" stroke-width="1.25" opacity="0.72"/><polyline points="395.6,755.22 408.8,817.14 370.88,953.02" fill="none" stroke="#93d8ef" stroke-width="1.25" opacity="0.72"/><polyline points="395.6,755.22 367.58,811.98 370.88,953.02" fill="none" stroke="#93d8ef" stroke-width="1.25" opacity="0.72"/><polyline points="532.42,811.98 511.79,814.41 491.2,817.14 511.83,814.71 532.42,811.98" fill="none" stroke="#93d8ef" stroke-width="1.25" opacity="0.72"/><polyline points="408.8,817.14 388.21,814.41 367.58,811.98 388.17,814.71 408.8,817.14" fill="none" stroke="#93d8ef" stroke-width="1.25" opacity="0.72"/><circle cx="450" cy="342.31" r="3.96" fill="#eef8f5" stroke="#245d73" stroke-width="1.3" opacity="0.9"/><circle cx="504.4" cy="755.22" r="3.96" fill="#eef8f5" stroke="#245d73" stroke-width="1.3" opacity="0.9"/><circle cx="395.6" cy="755.22" r="3.96" fill="#eef8f5" stroke="#245d73" stroke-width="1.3" opacity="0.9"/><polyline points="450,342.31 450,318.7 450,265.66" fill="none" stroke="#93d8ef" stroke-width="1.25" opacity="0.72"/><polyline points="450,342.31 466.11,332.88 501.92,311.9" fill="none" stroke="#93d8ef" stroke-width="1.25" opacity="0.72"/><polyline points="450,342.31 433.89,332.88 398.08,311.9" fill="none" stroke="#93d8ef" stroke-width="1.25" opacity="0.72"/><polyline points="501.92,311.9 516.87,322.27 553.85,347.91" fill="none" stroke="#93d8ef" stroke-width="1.25" opacity="0.72"/><polyline points="398.08,311.9 383.13,322.27 346.15,347.91" fill="none" stroke="#93d8ef" stroke-width="1.25" opacity="0.72"/><polyline points="461.3,325.88 466.11,332.88 469.85,340.49 465.05,333.5 461.3,325.88" fill="none" stroke="#93d8ef" stroke-width="1.25" opacity="0.72"/><polyline points="430.15,340.49 433.89,332.88 438.7,325.88 434.95,333.5 430.15,340.49" fill="none" stroke="#93d8ef" stroke-width="1.25" opacity="0.72"/><polyline points="450,342.31 461.3,325.88 501.92,311.9" fill="none" stroke="#93d8ef" stroke-width="1.25" opacity="0.72"/><polyline points="450,342.31 469.85,340.49 501.92,311.9" fill="none" stroke="#93d8ef" stroke-width="1.25" opacity="0.72"/><polyline points="450,342.31 430.15,340.49 398.08,311.9" fill="none" stroke="#93d8ef" stroke-width="1.25" opacity="0.72"/><polyline points="450,342.31 438.7,325.88 398.08,311.9" fill="none" stroke="#93d8ef" stroke-width="1.25" opacity="0.72"/><polyline points="690.93,347.91 726.74,347.91 810.31,347.91" fill="none" stroke="#93d8ef" stroke-width="1.25" opacity="0.72"/><polyline points="209.07,347.91 173.26,347.91 89.69,347.91" fill="none" stroke="#93d8ef" stroke-width="1.25" opacity="0.72"/><polyline points="501.92,311.9 522.57,315.39 553.85,347.91" fill="none" stroke="#93d8ef" stroke-width="1.25" opacity="0.72"/><polyline points="501.92,311.9 512.43,330.02 553.85,347.91" fill="none" stroke="#93d8ef" stroke-width="1.25" opacity="0.72"/><polyline points="398.08,311.9 387.57,330.02 346.15,347.91" fill="none" stroke="#93d8ef" stroke-width="1.25" opacity="0.72"/><polyline points="398.08,311.9 377.43,315.39 346.15,347.91" fill="none" stroke="#93d8ef" stroke-width="1.25" opacity="0.72"/><polyline points="450,414.01 450,393.47 450,342.31" fill="none" stroke="#93d8ef" stroke-width="1.25" opacity="0.72"/><polyline points="553.85,347.91 594.97,347.91 690.93,347.91" fill="none" stroke="#93d8ef" stroke-width="1.25" opacity="0.72"/><polyline points="346.15,347.91 305.03,347.91 209.07,347.91" fill="none" stroke="#93d8ef" stroke-width="1.25" opacity="0.72"/><polyline points="439.31,244.89 450,241.56 460.69,244.89 450,248.22 439.31,244.89" fill="none" stroke="#93d8ef" stroke-width="1.25" opacity="0.72"/><polyline points="522.57,315.39 516.87,322.27 512.43,330.02 518.13,323.14 522.57,315.39" fill="none" stroke="#93d8ef" stroke-width="1.25" opacity="0.72"/><polyline points="387.57,330.02 383.13,322.27 377.43,315.39 381.87,323.14 387.57,330.02" fill="none" stroke="#93d8ef" stroke-width="1.25" opacity="0.72"/><polyline points="499.45,545.05 521.7,607.62 504.4,755.22" fill="none" stroke="#93d8ef" stroke-width="1.25" opacity="0.72"/><polyline points="499.45,545.05 480.17,608.59 504.4,755.22" fill="none" stroke="#93d8ef" stroke-width="1.25" opacity="0.72"/><polyline points="400.55,545.05 419.83,608.59 395.6,755.22" fill="none" stroke="#93d8ef" stroke-width="1.25" opacity="0.72"/><polyline points="400.55,545.05 378.3,607.62 395.6,755.22" fill="none" stroke="#93d8ef" stroke-width="1.25" opacity="0.72"/><polyline points="336.26,357.14 338.45,357.14 344.92,357.14 355.43,357.14 369.58,357.14 386.81,357.14 406.48,357.14 427.81,357.14 450,357.14 472.19,357.14 493.52,357.14 513.19,357.14 530.42,357.14 544.57,357.14 555.08,357.14 561.55,357.14 563.74,357.14 561.55,357.14 555.08,357.14 544.57,357.14 530.42,357.14 513.19,357.14 493.52,357.14 472.19,357.14 450,357.14 427.81,357.14 406.48,357.14 386.81,357.14 369.58,357.14 355.43,357.14 344.92,357.14 338.45,357.14 336.26,357.14" fill="none" stroke="#de78d6" stroke-width="3.1" opacity="0.92"/><polyline points="504.4,755.22 511.83,814.71 529.12,953.02" fill="none" stroke="#93d8ef" stroke-width="1.25" opacity="0.72"/><polyline points="395.6,755.22 388.17,814.71 370.88,953.02" fill="none" stroke="#93d8ef" stroke-width="1.25" opacity="0.72"/><polyline points="450,342.31 465.05,333.5 501.92,311.9" fill="none" stroke="#93d8ef" stroke-width="1.25" opacity="0.72"/><polyline points="450,342.31 434.95,333.5 398.08,311.9" fill="none" stroke="#93d8ef" stroke-width="1.25" opacity="0.72"/><polyline points="521.7,607.62 500.92,607.6 480.17,608.59 500.95,608.61 521.7,607.62" fill="none" stroke="#93d8ef" stroke-width="1.25" opacity="0.72"/><polyline points="419.83,608.59 399.08,607.6 378.3,607.62 399.05,608.61 419.83,608.59" fill="none" stroke="#93d8ef" stroke-width="1.25" opacity="0.72"/><polyline points="501.92,311.9 518.13,323.14 553.85,347.91" fill="none" stroke="#93d8ef" stroke-width="1.25" opacity="0.72"/><polyline points="398.08,311.9 381.87,323.14 346.15,347.91" fill="none" stroke="#93d8ef" stroke-width="1.25" opacity="0.72"/><polyline points="450,545.05 464.84,545.05 499.45,545.05" fill="none" stroke="#93d8ef" stroke-width="1.25" opacity="0.72"/><polyline points="450,545.05 435.16,545.05 400.55,545.05" fill="none" stroke="#93d8ef" stroke-width="1.25" opacity="0.72"/><polyline points="450,414.01 439.88,392.5 450,342.31" fill="none" stroke="#93d8ef" stroke-width="1.25" opacity="0.72"/><polyline points="450,414.01 460.12,392.5 450,342.31" fill="none" stroke="#93d8ef" stroke-width="1.25" opacity="0.72"/><polyline points="450,265.66 450,241.56 450,196.43" fill="none" stroke="#93d8ef" stroke-width="1.25" opacity="0.72"/><circle cx="501.92" cy="311.9" r="3.96" fill="#eef8f5" stroke="#245d73" stroke-width="1.3" opacity="0.9"/><circle cx="398.08" cy="311.9" r="3.96" fill="#eef8f5" stroke="#245d73" stroke-width="1.3" opacity="0.9"/><polyline points="439.88,392.5 450,393.47 460.12,392.5 450,391.53 439.88,392.5" fill="none" stroke="#93d8ef" stroke-width="1.25" opacity="0.72"/><polygon points="524.18,579.67 524.18,579.67 375.82,579.67 375.82,579.67" fill="#865180" stroke="#de78d6" stroke-width="1.7" opacity="0.25"/><polygon points="375.82,579.67 375.82,579.67 375.82,510.44 375.82,510.44" fill="#602b5a" stroke="#de78d6" stroke-width="1.7" opacity="0.25"/><polygon points="375.82,510.44 375.82,510.44 524.18,510.44 524.18,510.44" fill="#4c1746" stroke="#de78d6" stroke-width="1.7" opacity="0.25"/><polygon points="524.18,510.44 524.18,510.44 524.18,579.67 524.18,579.67" fill="#6d3867" stroke="#de78d6" stroke-width="1.7" opacity="0.25"/><polyline points="464.84,538.13 464.84,545.05 464.84,551.98 464.84,545.05 464.84,538.13" fill="none" stroke="#93d8ef" stroke-width="1.25" opacity="0.72"/><polyline points="450,545.05 464.84,538.13 499.45,545.05" fill="none" stroke="#93d8ef" stroke-width="1.25" opacity="0.72"/><polyline points="450,545.05 464.84,551.98 499.45,545.05" fill="none" stroke="#93d8ef" stroke-width="1.25" opacity="0.72"/><polyline points="435.16,551.98 435.16,545.05 435.16,538.13 435.16,545.05 435.16,551.98" fill="none" stroke="#93d8ef" stroke-width="1.25" opacity="0.72"/><polyline points="450,545.05 435.16,551.98 400.55,545.05" fill="none" stroke="#93d8ef" stroke-width="1.25" opacity="0.72"/><polyline points="450,545.05 435.16,538.13 400.55,545.05" fill="none" stroke="#93d8ef" stroke-width="1.25" opacity="0.72"/><circle cx="450" cy="545.05" r="3.96" fill="#eef8f5" stroke="#245d73" stroke-width="1.3" opacity="0.9"/><circle cx="499.45" cy="545.05" r="3.96" fill="#eef8f5" stroke="#245d73" stroke-width="1.3" opacity="0.9"/><circle cx="400.55" cy="545.05" r="3.96" fill="#eef8f5" stroke="#245d73" stroke-width="1.3" opacity="0.9"/><polyline points="450,414.01 450,391.53 450,342.31" fill="none" stroke="#93d8ef" stroke-width="1.25" opacity="0.72"/><polyline points="450,265.66 439.31,244.89 450,196.43" fill="none" stroke="#93d8ef" stroke-width="1.25" opacity="0.72"/><polyline points="450,265.66 460.69,244.89 450,196.43" fill="none" stroke="#93d8ef" stroke-width="1.25" opacity="0.72"/><polyline points="450,545.05 464.84,545.05 499.45,545.05" fill="none" stroke="#93d8ef" stroke-width="1.25" opacity="0.72"/><polyline points="450,545.05 435.16,545.05 400.55,545.05" fill="none" stroke="#93d8ef" stroke-width="1.25" opacity="0.72"/><polyline points="499.45,545.05 500.95,608.61 504.4,755.22" fill="none" stroke="#93d8ef" stroke-width="1.25" opacity="0.72"/><polyline points="400.55,545.05 399.05,608.61 395.6,755.22" fill="none" stroke="#93d8ef" stroke-width="1.25" opacity="0.72"/><circle cx="450" cy="414.01" r="3.96" fill="#eef8f5" stroke="#245d73" stroke-width="1.3" opacity="0.9"/><polyline points="450,545.05 450,524.54 450,480.77" fill="none" stroke="#93d8ef" stroke-width="1.25" opacity="0.72"/><polyline points="450,265.66 450,248.22 450,196.43" fill="none" stroke="#93d8ef" stroke-width="1.25" opacity="0.72"/><polyline points="440.85,525.77 450,524.54 459.15,525.77 450,527 440.85,525.77" fill="none" stroke="#93d8ef" stroke-width="1.25" opacity="0.72"/><polyline points="450,545.05 440.85,525.77 450,480.77" fill="none" stroke="#93d8ef" stroke-width="1.25" opacity="0.72"/><polyline points="450,545.05 459.15,525.77 450,480.77" fill="none" stroke="#93d8ef" stroke-width="1.25" opacity="0.72"/><polyline points="450,480.77 450,461.72 450,414.01" fill="none" stroke="#93d8ef" stroke-width="1.25" opacity="0.72"/><polyline points="450,545.05 450,527 450,480.77" fill="none" stroke="#93d8ef" stroke-width="1.25" opacity="0.72"/><polyline points="450,480.77 440.56,460.74 450,414.01" fill="none" stroke="#93d8ef" stroke-width="1.25" opacity="0.72"/><polyline points="450,480.77 459.44,460.74 450,414.01" fill="none" stroke="#93d8ef" stroke-width="1.25" opacity="0.72"/><polyline points="440.56,460.74 450,461.72 459.44,460.74 450,459.77 440.56,460.74" fill="none" stroke="#93d8ef" stroke-width="1.25" opacity="0.72"/><polyline points="450,480.77 450,459.77 450,414.01" fill="none" stroke="#93d8ef" stroke-width="1.25" opacity="0.72"/><circle cx="450" cy="480.77" r="3.96" fill="#eef8f5" stroke="#245d73" stroke-width="1.3" opacity="0.9"/><polygon points="506.87,250.82 506.87,250.82 393.13,250.82 393.13,250.82" fill="#865180" stroke="#de78d6" stroke-width="1.7" opacity="0.25"/><polygon points="393.13,250.82 393.13,250.82 393.13,127.2 393.13,127.2" fill="#602b5a" stroke="#de78d6" stroke-width="1.7" opacity="0.25"/><polygon points="393.13,127.2 393.13,127.2 506.87,127.2 506.87,127.2" fill="#4c1746" stroke="#de78d6" stroke-width="1.7" opacity="0.25"/><polygon points="506.87,127.2 506.87,127.2 506.87,250.82 506.87,250.82" fill="#6d3867" stroke="#de78d6" stroke-width="1.7" opacity="0.25"/><circle cx="450" cy="196.43" r="3.96" fill="#eef8f5" stroke="#245d73" stroke-width="1.3" opacity="0.9"/><polygon points="524.18,579.67 524.18,510.44 375.82,510.44 375.82,579.67" fill="#6d3867" stroke="#de78d6" stroke-width="1.7" opacity="0.25"/><polygon points="506.87,250.82 506.87,127.2 393.13,127.2 393.13,250.82" fill="#6d3867" stroke="#de78d6" stroke-width="1.7" opacity="0.25"/></g>
<path d="M24 24h44M24 24v44" fill="none" stroke="#58717b" stroke-width="1" opacity=".5"/>
</svg>
